{
  "accessors":[
    {
      "bufferView": 2,
      "componentType": 5126,
      "count": 1090,
      "max": [
        13.641376495361328,
        11.85049819946289,
        18.895084381103516
      ],
      "min": [
        -13.641376495361328,
        -11.85049819946289,
        -18.895084381103516
      ],
      "type": "VEC3"
    },
    {
      "bufferView": 2,
      "byteOffset": 13080,
      "componentType": 5126,
      "count": 1090,
      "max": [
        1.0,
        0.9987764954566956,
        0.9862111806869507
      ],
      "min": [
        -1.0,
        -0.999523401260376,
        -0.998532772064209
      ],
      "type": "VEC3"
    },
    {
      "bufferView": 3,
      "componentType": 5126,
      "count": 1090,
      "max": [
        1.0,
        0.9993984699249268,
        0.9981679916381836,
        1.0
      ],
      "min": [
        -1.0,
        -0.9946700930595398,
        -0.999062716960907,
        -1.0
      ],
      "type": "VEC4"
    },
    {
      "bufferView": 1,
      "componentType": 5126,
      "count": 1090,
      "max": [
        0.986328125,
        0.9878768920898438
      ],
      "min": [
        0.005359649658203125,
        0.00830078125
      ],
      "type": "VEC2"
    },
    {
      "bufferView": 1,
      "byteOffset": 8720,
      "componentType": 5126,
      "count": 1090,
      "max": [
        0.9853515625,
        0.96160888671875
      ],
      "min": [
        0.01461029052734375,
        0.0146484375
      ],
      "type": "VEC2"
    },
    {
      "bufferView": 1,
      "byteOffset": 17440,
      "componentType": 5126,
      "count": 1090,
      "max": [
        0.986328125,
        0.9878768920898438
      ],
      "min": [
        0.005359649658203125,
        0.00830078125
      ],
      "type": "VEC2"
    },
    {
      "bufferView": 1,
      "byteOffset": 26160,
      "componentType": 5126,
      "count": 1090,
      "max": [
        0.986328125,
        0.9878768920898438
      ],
      "min": [
        0.005359649658203125,
        0.00830078125
      ],
      "type": "VEC2"
    },
    {
      "bufferView": 1,
      "byteOffset": 34880,
      "componentType": 5126,
      "count": 1090,
      "max": [
        0.986328125,
        0.9878768920898438
      ],
      "min": [
        0.005359649658203125,
        0.00830078125
      ],
      "type": "VEC2"
    },
    {
      "bufferView": 1,
      "byteOffset": 43600,
      "componentType": 5126,
      "count": 1090,
      "max": [
        0.986328125,
        0.9878768920898438
      ],
      "min": [
        0.005359649658203125,
        0.00830078125
      ],
      "type": "VEC2"
    },
    {
      "bufferView": 0,
      "componentType": 5125,
      "count": 3846,
      "type": "SCALAR"
    }
  ],
  "asset": {
    "extras": {
      "author": "MaX3Dd (https://sketchfab.com/MaX3Dd)",
      "license": "CC-BY-4.0 (http://creativecommons.org/licenses/by/4.0/)",
      "source": "https://sketchfab.com/3d-models/old-metal-folding-chair-bc526e9ae4954ecf82c9caf35d8e6bdd",
      "title": "Old Metal Folding Chair"
    },
    "generator": "Sketchfab-15.8.0",
    "version": "2.0"
  },
  "bufferViews": [
    {
      "buffer": 0,
      "byteLength": 15384,
      "name": "floatBufferViews",
      "target": 34963
    },
    {
      "buffer": 0,
      "byteLength": 52320,
      "byteOffset": 15384,
      "byteStride": 8,
      "name": "floatBufferViews",
      "target": 34962
    },
    {
      "buffer": 0,
      "byteLength": 26160,
      "byteOffset": 67704,
      "byteStride": 12,
      "name": "floatBufferViews",
      "target": 34962
    },
    {
      "buffer": 0,
      "byteLength": 17440,
      "byteOffset": 93864,
      "byteStride": 16,
      "name": "floatBufferViews",
      "target": 34962
    }
  ],
  "buffers": [
    {
      "byteLength": 111304,
      "uri": "scene.bin"
    }
  ],
  "images": [
    {
      "uri": "textures/metal_chair_baseColor.png"
    },
    {
      "uri": "textures/metal_chair_metallicRoughness.png"
    },
    {
      "uri": "textures/metal_chair_normal.png"
    }
  ],
  "materials": [
    {
      "doubleSided": true,
      "name": "metal_chair",
      "normalTexture": {
        "index": 2
      },
      "occlusionTexture": {
        "index": 1
      },
      "pbrMetallicRoughness": {
        "baseColorTexture": {
          "index": 0
        },
        "metallicRoughnessTexture": {
          "index": 1
        }
      }
    }
  ],
  "meshes": [
    {
      "name": "metal_chair_metal_chair_0",
      "primitives": [
        {
          "attributes": {
            "NORMAL": 1,
            "POSITION": 0,
            "TANGENT": 2,
            "TEXCOORD_0": 3,
            "TEXCOORD_1": 4,
            "TEXCOORD_2": 5,
            "TEXCOORD_3": 6,
            "TEXCOORD_4": 7,
            "TEXCOORD_5": 8
          },
          "indices": 9,
          "material": 0,
          "mode": 4
        }
      ]
    }
  ],
  "nodes": [
    {
      "children": [
        1
      ],
      "matrix": [
        1.0,
        0.0,
        0.0,
        0.0,
        0.0,
        2.220446049250313e-16,
        -1.0,
        0.0,
        0.0,
        1.0,
        2.220446049250313e-16,
        0.0,
        0.0,
        0.0,
        0.0,
        1.0
      ],
      "name": "Sketchfab_model"
    },
    {
      "children": [
        2
      ],
      "matrix": [
        0.009999999776482582,
        0.0,
        0.0,
        0.0,
        0.0,
        0.0,
        0.009999999776482582,
        0.0,
        0.0,
        -0.009999999776482582,
        0.0,
        0.0,
        0.0,
        0.0,
        0.0,
        1.0
      ],
      "name": "metal chair.fbx"
    },
    {
      "children": [
        3
      ],
      "name": "RootNode"
    },
    {
      "children": [
        4
      ],
      "matrix": [
        1.0,
        0.0,
        0.0,
        0.0,
        0.0,
        2.220446049250313e-16,
        -1.0,
        0.0,
        0.0,
        1.0,
        2.220446049250313e-16,
        0.0,
        -1.52587890625e-05,
        18.895084381103516,
        0.0,
        1.0
      ],
      "name": "metal_chair"
    },
    {
      "mesh": 0,
      "name": "metal_chair_metal_chair_0"
    }
  ],
  "samplers": [
    {
      "magFilter": 9729,
      "minFilter": 9987,
      "wrapS": 10497,
      "wrapT": 10497
    }
  ],
  "scene": 0,
  "scenes": [
    {
      "name": "Sketchfab_Scene",
      "nodes": [
        0
      ]
    }
  ],
  "textures": [
    {
      "sampler": 0,
      "source": 0
    },
    {
      "sampler": 0,
      "source": 1
    },
    {
      "sampler": 0,
      "source": 2
    }
  ]
}
